# xmcd
#
# Track frame offsets: 
#        150
#        20248
#        37904
#        51454
#        70172
#        86016
#        107347
#        128339
#        151067
#        168382
#        191665
#        207282
#        230266
#        248293
#        268376
#        287757
#        307883
#
# Disc length: 4347 seconds
#
# Revision: 0
# Processed by: cddbd v1.5.1PL2 Copyright (c) Steve Scherf et al.
# Submitted via: ExactAudioCopy v0.95a5
#
DISCID=de10f911
DTITLE=群星 Compilation - 最动听的...天作之合 DISC 2
DYEAR=1900
DGENRE=ALAN
TTITLE0=爱了就算 - 郑秀文/成龙
TTITLE1=埋伏 - 郭富城/VRF
TTITLE2=花火 - 郑秀文/梁咏琪
TTITLE3=谈情说爱 - 郑秀文/叶`文
TTITLE4=欢乐今宵 - 郑秀文/古巨基
TTITLE5=债 - LMF/叶德娴
TTITLE6=妄想 - VRF
TTITLE7=干一杯 - 叶`文/林子祥
TTITLE8=等 - 陈百强/叶`文
TTITLE9=温柔的你 - 林忆莲/王杰
TTITLE10=再见亦是朋友 - 何婉盈/曾航生
TTITLE11=旧居中的钢琴 - 林子祥/郭静
TTITLE12=原来爱过以后 - 周润发/叶`文
TTITLE13=依依不舍 - 张卫健/黎姿
TTITLE14=曾在你怀抱 - 陈百强/林姗姗
TTITLE15=爱到分离仍是爱 - 叶`文/林子祥
TTITLE16=车站 - 苏芮/夏韶声
EXTD=
EXTT0=
EXTT1=
EXTT2=
EXTT3=
EXTT4=
EXTT5=
EXTT6=
EXTT7=
EXTT8=
EXTT9=
EXTT10=
EXTT11=
EXTT12=
EXTT13=
EXTT14=
EXTT15=
EXTT16=
PLAYORDER=
